<svg width="120" height="105" fill="none" xmlns="http://www.w3.org/2000/svg"><circle cx="50" cy="50" r="50" fill="#E1F3F4"/><path d="M111.25 35H105v-2.5a5.002 5.002 0 00-5-5 5 5 0 00-5 5V35H85v-2.5a5 5 0 10-10 0V35H65v-2.5a5 5 0 10-10 0V35h-6.25a6.25 6.25 0 00-6.25 6.25v50a6.25 6.25 0 006.25 6.25h35a1.25 1.25 0 000-2.5h-35A3.762 3.762 0 0145 91.25V52.5h70v21.25a1.252 1.252 0 002.134.884 1.25 1.25 0 00.366-.884v-32.5a6.247 6.247 0 00-6.25-6.25zM97.5 32.5a2.5 2.5 0 015 0V40a2.5 2.5 0 11-5 0v-7.5zm-20 0a2.5 2.5 0 015 0V40a2.5 2.5 0 01-5 0v-7.5zm-20 0a2.5 2.5 0 015 0V40a2.5 2.5 0 01-5 0v-7.5zM115 50H45v-8.75a3.762 3.762 0 013.75-3.75H55V40a5 5 0 1010 0v-2.5h10V40a5 5 0 1010 0v-2.5h10V40a5 5 0 1010 0v-2.5h6.25a3.759 3.759 0 013.75 3.75V50z" fill="#FF6744"/><path d="M77.5 61.25a2.5 2.5 0 00-2.5-2.5h-5a2.5 2.5 0 00-2.5 2.5V65a2.5 2.5 0 002.5 2.5h5a2.5 2.5 0 002.5-2.5v-3.75zM70 65v-3.75h5V65h-5zm-7.5-3.75a2.5 2.5 0 00-2.5-2.5h-5a2.5 2.5 0 00-2.5 2.5V65a2.5 2.5 0 002.5 2.5h5a2.5 2.5 0 002.5-2.5v-3.75zM55 65v-3.75h5V65h-5zm50 2.5a2.501 2.501 0 002.5-2.5v-3.75a2.5 2.5 0 00-2.5-2.5h-5a2.5 2.5 0 00-2.5 2.5V65a2.5 2.5 0 002.5 2.5h5zm-5-6.25h5V65h-5v-3.75zM77.5 72.5A2.5 2.5 0 0075 70h-5a2.5 2.5 0 00-2.5 2.5v3.75a2.5 2.5 0 002.5 2.5h5a2.5 2.5 0 002.5-2.5V72.5zM70 76.25V72.5h5v3.75h-5zm-7.5-3.75A2.5 2.5 0 0060 70h-5a2.5 2.5 0 00-2.5 2.5v3.75a2.5 2.5 0 002.5 2.5h5a2.5 2.5 0 002.5-2.5V72.5zM55 76.25V72.5h5v3.75h-5zm20 5h-5a2.5 2.5 0 00-2.5 2.5v3.75A2.5 2.5 0 0070 90h5a2.5 2.5 0 002.5-2.5v-3.75a2.5 2.5 0 00-2.5-2.5zm-5 6.25v-3.75h5v3.75h-5zm15-20h5a2.5 2.5 0 002.5-2.5v-3.75a2.5 2.5 0 00-2.5-2.5h-5a2.5 2.5 0 00-2.5 2.5V65a2.5 2.5 0 002.5 2.5zm0-6.25h5V65h-5v-3.75zm-2.5 15a2.5 2.5 0 002.5 2.5 1.25 1.25 0 000-2.5V72.5h5a1.25 1.25 0 000-2.5h-5a2.5 2.5 0 00-2.5 2.5v3.75zm-22.5 5h-5a2.5 2.5 0 00-2.5 2.5v3.75A2.5 2.5 0 0055 90h5a2.5 2.5 0 002.5-2.5v-3.75a2.5 2.5 0 00-2.5-2.5zm-5 6.25v-3.75h5v3.75h-5z" fill="#FF6744"/><path d="M101.25 70a16.25 16.25 0 1016.25 16.25A16.27 16.27 0 00101.25 70zm0 30A13.75 13.75 0 11115 86.25 13.764 13.764 0 01101.25 100z" fill="#FF6744"/><path d="M108.473 81.01l-9.723 9.723-4.419-4.42a1.25 1.25 0 00-1.767 1.767l5.302 5.304a1.25 1.25 0 001.768 0l10.606-10.606a1.248 1.248 0 00-.888-2.119 1.248 1.248 0 00-.879.351z" fill="#FF6744"/></svg>