<svg width="120" height="105" fill="none" xmlns="http://www.w3.org/2000/svg"><circle cx="50" cy="50" r="50" fill="#E1F3F4"/><path d="M111.304 52.366C111.304 37.252 97.289 25 80 25c-17.289 0-31.304 12.252-31.304 27.366-4.47.486-8.696 3.04-8.696 8.97v14.291c0 6.69 5.356 9.122 10.435 9.122h5.043c.96 0 1.74-.68 1.74-1.52V53.795c0-.84-.78-1.52-1.74-1.52h-3.304c0-13.435 12.458-24.326 27.826-24.326s27.826 10.891 27.826 24.326h-3.304c-.961 0-1.739.68-1.739 1.52v29.388c0 .84.778 1.52 1.739 1.52h3.304c-.487 10.445-6.226 12.893-17.687 13.334v-1.019c0-1.68-1.557-3.04-3.478-3.04H75.72c-1.92 0-3.478 1.36-3.478 3.04v4.941c0 1.68 1.558 3.041 3.479 3.041h10.974c1.92 0 3.478-1.361 3.478-3.041v-.881c11.026-.441 20.556-2.433 21.13-16.466 4.47-.486 8.696-3.04 8.696-8.97v-14.29c0-5.96-4.209-8.5-8.696-8.986zm-57.565 2.843v26.454h-3.391c-2.574 0-6.957-.79-6.957-6.081V61.29c0-5.245 4.33-6.081 6.957-6.081h3.391zm32.957 44.455v2.311H75.722v-4.942h10.974v2.63zm29.826-24.037c0 5.245-4.331 6.082-6.957 6.082h-3.304V55.315h3.391c2.574 0 6.957.791 6.957 6.082l-.087 14.23z" fill="#FF6744"/></svg>