<svg width="120" height="105" fill="none" xmlns="http://www.w3.org/2000/svg"><circle cx="50" cy="50" r="50" fill="#E1F3F4"/><g clip-path="url(#clip0_2162_5)" fill="#FF6744"><path d="M80 25a9.333 9.333 0 00-9.333 9.333A9.344 9.344 0 0080 43.667 9.333 9.333 0 0080 25zm0 16a6.667 6.667 0 01-6.667-6.667A6.675 6.675 0 0180 27.667 6.667 6.667 0 0180 41zm4 4h-8c-6.624.007-11.993 5.376-12 12v22.667h5.333V105H72V74.333h-2.667V77h-2.666V57A9.344 9.344 0 0176 47.667h8A9.344 9.344 0 0193.333 57v20h-2.666v-2.667H88V105h2.667V79.667H96V57c-.007-6.624-5.376-11.993-12-12z"/><path d="M81.333 79.666h-2.666V105h2.666V79.666zm25.334-41.332a8 8 0 00-8 8 8.008 8.008 0 008 8 8 8 0 000-16zm0 13.333a5.334 5.334 0 110-10.667 5.334 5.334 0 010 10.667zm4 4h-12v2.666h12A6.674 6.674 0 01117.333 65v17.333h-2.666v-2.666H112V105h2.667V85H120V65a9.344 9.344 0 00-9.333-9.333zm-12 23.999v2.667h-5.334V85h5.334v20h2.666V79.666h-2.666z"/><path d="M108 85h-2.667v20H108V85zM53.333 38.334a8 8 0 00-8 8 8.008 8.008 0 008 8 8 8 0 100-16zm0 13.333a5.333 5.333 0 110-10.667 5.333 5.333 0 010 10.667zm-4 4A9.344 9.344 0 0040 65v20h5.333v20H48V79.667h-2.667v2.666h-2.666V65a6.675 6.675 0 016.666-6.667h12v-2.666h-12zm12 26.666v-2.666h-2.666V105h2.666V85h5.334v-2.667h-5.334z"/><path d="M54.667 85H52v20h2.667V85z"/></g><defs><clipPath id="clip0_2162_5"><path fill="#fff" transform="translate(40 25)" d="M0 0h80v80H0z"/></clipPath></defs></svg>