<svg width="120" height="105" fill="none" xmlns="http://www.w3.org/2000/svg"><circle cx="50" cy="50" r="50" fill="#E1F3F4"/><path d="M116 40.385h-14.667v-4.616C101.328 29.824 97.153 25.007 92 25H68c-5.152.007-9.328 4.824-9.333 10.77v4.615H44c-2.21 0-4 2.066-4 4.615v30.77c.007 1.948 1.074 3.682 2.667 4.332v20.283c0 2.549 1.79 4.615 4 4.615h66.666c2.21 0 4-2.066 4-4.615V80.101c1.593-.65 2.66-2.383 2.667-4.332V45c0-2.549-1.791-4.615-4-4.615zm-54.667-4.616c.005-4.246 2.987-7.687 6.667-7.692h24c3.68.005 6.662 3.446 6.667 7.692v4.616h-2.72L96 35.769c-.004-2.547-1.793-4.61-4-4.615H67.95c-2.207.005-3.995 2.068-4 4.615v.016l.037 4.6h-2.654v-4.616zm32-.021l-.053 4.637H66.653l-.041-4.616c0-.85.597-1.538 1.333-1.538H92c.73 0 1.323.675 1.333 1.517zm21.334 64.637c0 .849-.597 1.538-1.334 1.538H46.667c-.737 0-1.334-.689-1.334-1.538v-20h9.334V85c0 .85.597 1.538 1.333 1.538h5.333c.737 0 1.334-.688 1.334-1.538v-4.615h34.666V85c0 .85.597 1.538 1.334 1.538H104c.736 0 1.333-.688 1.333-1.538v-4.615h9.334v20zM57.333 83.461V75.77c0-.415.148-.811.41-1.095a1.19 1.19 0 01.924-.443c.736 0 1.333.689 1.333 1.538v7.692h-2.667zm42.667 0V75.77c0-.85.597-1.538 1.333-1.538.36-.002.704.169.951.47.247.282.385.667.383 1.068v7.692H100zm17.333-7.692c0 .85-.597 1.539-1.333 1.539h-10.667v-1.539c-.009-2.544-1.794-4.604-4-4.615-2.209 0-4 2.066-4 4.615v1.539H62.667v-1.539c0-2.549-1.791-4.615-4-4.615-2.204.014-3.988 2.072-4 4.615v1.539H44c-.736 0-1.333-.69-1.333-1.539V45c0-.85.597-1.538 1.333-1.538h72c.736 0 1.333.688 1.333 1.538v30.77z" fill="#FF6744"/></svg>