<svg width="80" height="84" fill="none" xmlns="http://www.w3.org/2000/svg"><circle cx="40" cy="42" r="40" fill="#000"/><path d="M43.484 58.14L51.29 13h9.95l-9.352 54h-8.895l.492-8.86zm-21.656-9.42l.07-.774c.305-2.32.844-4.664 1.618-7.03.797-2.368 1.875-4.524 3.234-6.47 1.383-1.945 3.082-3.492 5.098-4.64 2.015-1.149 4.406-1.676 7.172-1.582 2.367.093 4.324.761 5.87 2.004 1.547 1.218 2.743 2.8 3.587 4.746a22.422 22.422 0 011.757 6.152c.328 2.156.457 4.207.387 6.152l-.176 1.688c-.375 2.086-1.008 4.242-1.898 6.469a26.752 26.752 0 01-3.41 6.152c-1.383 1.875-3.035 3.387-4.957 4.535-1.899 1.148-4.067 1.688-6.504 1.617-2.555-.07-4.653-.691-6.293-1.863-1.617-1.195-2.871-2.73-3.762-4.605-.89-1.876-1.465-3.915-1.723-6.118a29.604 29.604 0 01-.07-6.433zm10.02-.809l-.07.738a46.435 46.435 0 00-.176 3.41c0 1.243.128 2.45.386 3.622.282 1.148.785 2.11 1.512 2.883.75.75 1.828 1.16 3.234 1.23 1.782.07 3.317-.34 4.606-1.23a10.18 10.18 0 003.094-3.516 13.763 13.763 0 001.582-4.5l.668-4.676a15.245 15.245 0 000-3.27 10.378 10.378 0 00-.809-3.093 5.503 5.503 0 00-1.828-2.356c-.797-.609-1.84-.925-3.129-.949-1.57-.07-2.906.27-4.008 1.02-1.078.726-1.957 1.687-2.637 2.883a16.97 16.97 0 00-1.617 3.831 29.88 29.88 0 00-.808 3.973z" fill="#fff"/></svg>