<svg width="23" height="19" fill="none" xmlns="http://www.w3.org/2000/svg"><path d="M17.295.016c1.056 0 1.92.216 2.592.648a5.45 5.45 0 011.656 1.656 6.066 6.066 0 011.008 2.52c.144.912.216 1.656.216 2.232 0 2.352-.6 4.488-1.8 6.408-1.2 1.92-3.072 3.48-5.616 4.68l-.648-1.296c1.488-.624 2.76-1.608 3.816-2.952 1.104-1.344 1.656-2.712 1.656-4.104 0-.576-.072-1.08-.216-1.512a4.102 4.102 0 01-2.664.936c-1.248 0-2.328-.408-3.24-1.224-.912-.816-1.368-1.944-1.368-3.384 0-1.344.456-2.448 1.368-3.312.912-.864 1.992-1.296 3.24-1.296zm-12.24 0c1.056 0 1.92.216 2.592.648A5.45 5.45 0 019.303 2.32a6.066 6.066 0 011.008 2.52c.144.912.216 1.656.216 2.232 0 2.352-.6 4.488-1.8 6.408-1.2 1.92-3.072 3.48-5.616 4.68l-.648-1.296c1.488-.624 2.76-1.608 3.816-2.952 1.104-1.344 1.656-2.712 1.656-4.104 0-.576-.072-1.08-.216-1.512a4.102 4.102 0 01-2.664.936c-1.248 0-2.328-.408-3.24-1.224C.903 7.192.447 6.064.447 4.624c0-1.344.456-2.448 1.368-3.312C2.727.448 3.807.016 5.055.016z" fill="#FF6744"/></svg>