<svg width="23" height="23" viewBox="0 0 23 23" fill="none" xmlns="http://www.w3.org/2000/svg">
<path d="M11.7009 0.510498C5.65882 0.510498 0.760742 5.40332 0.760742 11.4389C0.760742 17.4745 5.65882 22.3674 11.7009 22.3674C17.743 22.3674 22.6411 17.4745 22.6411 11.4389C22.634 5.40624 17.7401 0.517524 11.7009 0.510498Z" fill="#5243C2" fill-opacity="0.103693"/>
<path d="M18.0161 7.97817L11.7756 16.4377C11.6268 16.6349 11.4049 16.7642 11.1597 16.7964C10.9146 16.8286 10.6667 16.761 10.4719 16.6089L6.01564 13.0499C5.6224 12.7355 5.55873 12.1622 5.87342 11.7694C6.18811 11.3766 6.762 11.313 7.15524 11.6274L10.8713 14.5972L16.5483 6.9008C16.7344 6.62176 17.0591 6.46748 17.3932 6.49922C17.7274 6.53096 18.0171 6.74359 18.1473 7.05268C18.2775 7.36178 18.2271 7.71733 18.0161 7.97817Z" fill="#5243C2"/>
</svg>
