<svg width="23" height="23" viewBox="0 0 23 23" fill="none" xmlns="http://www.w3.org/2000/svg">
<path opacity="0.1" d="M11.5386 0.30957C5.49647 0.30957 0.598389 5.2024 0.598389 11.238C0.598389 17.2736 5.49647 22.1664 11.5386 22.1664C17.5806 22.1664 22.4787 17.2736 22.4787 11.238C22.4717 5.20531 17.5777 0.316596 11.5386 0.30957Z" fill="white"/>
<path d="M17.8539 7.77724L11.6134 16.2368C11.4646 16.434 11.2427 16.5632 10.9975 16.5954C10.7523 16.6276 10.5045 16.5601 10.3097 16.408L5.85341 12.8489C5.46017 12.5346 5.3965 11.9613 5.71119 11.5685C6.02588 11.1757 6.59977 11.1121 6.99301 11.4264L10.709 14.3962L16.3861 6.69988C16.5722 6.42083 16.8968 6.26655 17.231 6.29829C17.5652 6.33003 17.8549 6.54266 17.9851 6.85176C18.1152 7.16085 18.0648 7.5164 17.8539 7.77724Z" fill="white"/>
</svg>
