<svg width="120" height="105" viewBox="0 0 120 105" fill="none" xmlns="http://www.w3.org/2000/svg">
<circle cx="50" cy="50" r="50" fill="#E1F3F4"/>
<path d="M111.304 52.366C111.304 37.2522 97.2889 25 80 25C62.7111 25 48.6957 37.2522 48.6957 52.366C44.2261 52.8525 40 55.4067 40 61.336V75.6271C40 82.3166 45.3565 84.7491 50.4348 84.7491H55.4783C56.4387 84.7491 57.2174 84.0684 57.2174 83.2288V53.7951C57.2174 52.9555 56.4387 52.2748 55.4783 52.2748H52.1739C52.1739 38.8404 64.6322 27.9494 80 27.9494C95.3678 27.9494 107.826 38.8404 107.826 52.2748H104.522C103.561 52.2748 102.783 52.9555 102.783 53.7951V83.1832C102.783 84.0228 103.561 84.7035 104.522 84.7035H107.826C107.339 95.1482 101.6 97.596 90.1391 98.0369V97.0182C90.1391 95.3388 88.582 93.9776 86.6609 93.9776H75.7217C73.8007 93.9776 72.2435 95.3388 72.2435 97.0182V101.959C72.2435 103.639 73.8007 105 75.7217 105H86.6957C88.6167 105 90.1739 103.639 90.1739 101.959V101.078C101.2 100.637 110.73 98.645 111.304 84.6123C115.774 84.1258 120 81.5716 120 75.6423V61.3512C120 55.3915 115.791 52.8525 111.304 52.366ZM53.7391 55.209V81.6629H50.3478C47.7739 81.6629 43.3913 80.8723 43.3913 75.5815V61.2904C43.3913 56.0452 47.7217 55.209 50.3478 55.209H53.7391ZM86.6957 99.6636V101.975H75.7217V97.0334H86.6957V99.6636ZM116.522 75.6271C116.522 80.8723 112.191 81.7085 109.565 81.7085H106.261V55.3155H109.652C112.226 55.3155 116.609 56.106 116.609 61.3968L116.522 75.6271Z" fill="#FF6744"/>
</svg>
