<svg width="120" height="105" viewBox="0 0 120 105" fill="none" xmlns="http://www.w3.org/2000/svg">
<circle cx="50" cy="50" r="50" fill="#E1F3F4"/>
<path d="M116 40.3846H101.333V35.7692C101.328 29.8244 97.1522 25.0067 92 25H68C62.8478 25.0067 58.6725 29.8244 58.6667 35.7692V40.3846H44C41.7908 40.3846 40 42.451 40 45V75.7692C40.007 77.7181 41.0742 79.4519 42.6667 80.1015V100.385C42.6667 102.934 44.4575 105 46.6667 105H113.333C115.543 105 117.333 102.934 117.333 100.385V80.1015C118.926 79.4519 119.993 77.7181 120 75.7692V45C120 42.451 118.209 40.3846 116 40.3846ZM61.3333 35.7692C61.3377 31.5231 64.32 28.0819 68 28.0769H92C95.68 28.0819 98.6623 31.5231 98.6667 35.7692V40.3846H95.9467L96 35.7692C95.9957 33.2223 94.2073 31.1588 92 31.1538H67.9507C65.7433 31.1588 63.955 33.2223 63.9507 35.7692V35.7846L63.9867 40.3846H61.3333V35.7692ZM93.3333 35.7477L93.28 40.3846H66.6533L66.612 35.7692C66.612 34.9196 67.209 34.2308 67.9453 34.2308H92C92.7292 34.2308 93.3232 34.9063 93.3333 35.7477ZM114.667 100.385C114.667 101.234 114.07 101.923 113.333 101.923H46.6667C45.9303 101.923 45.3333 101.234 45.3333 100.385V80.3846H54.6667V85C54.6667 85.8496 55.2637 86.5385 56 86.5385H61.3333C62.0697 86.5385 62.6667 85.8496 62.6667 85V80.3846H97.3333V85C97.3333 85.8496 97.9303 86.5385 98.6667 86.5385H104C104.736 86.5385 105.333 85.8496 105.333 85V80.3846H114.667V100.385ZM57.3333 83.4615V75.7692C57.3327 75.3544 57.4808 74.9579 57.7427 74.6738C57.9852 74.3863 58.319 74.2262 58.6667 74.2308C59.403 74.2308 60 74.9196 60 75.7692V78.8462V83.4615H57.3333ZM100 83.4615V75.7692C100 74.9196 100.597 74.2308 101.333 74.2308C101.693 74.2294 102.037 74.3998 102.284 74.7015C102.531 74.9833 102.669 75.3683 102.667 75.7692V78.8462V83.4615H100ZM117.333 75.7692C117.333 76.6188 116.736 77.3077 116 77.3077H105.333V75.7692C105.324 73.2248 103.539 71.1648 101.333 71.1538C99.1242 71.1538 97.3333 73.2202 97.3333 75.7692V77.3077H62.6667V75.7692C62.6667 73.2202 60.8758 71.1538 58.6667 71.1538C56.4627 71.1681 54.679 73.2262 54.6667 75.7692V77.3077H44C43.2637 77.3077 42.6667 76.6188 42.6667 75.7692V45C42.6667 44.1504 43.2637 43.4615 44 43.4615H116C116.736 43.4615 117.333 44.1504 117.333 45V75.7692Z" fill="#FF6744"/>
</svg>
