<svg width="120" height="105" viewBox="0 0 120 105" fill="none" xmlns="http://www.w3.org/2000/svg">
<circle cx="50" cy="50" r="50" fill="#E1F3F4"/>
<path d="M111.25 35H105V32.5C105 31.1739 104.473 29.9021 103.536 28.9645C102.598 28.0268 101.326 27.5 100 27.5C98.6739 27.5 97.4021 28.0268 96.4645 28.9645C95.5268 29.9021 95 31.1739 95 32.5V35H85V32.5C85 31.1739 84.4732 29.9021 83.5355 28.9645C82.5979 28.0268 81.3261 27.5 80 27.5C78.6739 27.5 77.4021 28.0268 76.4645 28.9645C75.5268 29.9021 75 31.1739 75 32.5V35H65V32.5C65 31.1739 64.4732 29.9021 63.5355 28.9645C62.5979 28.0268 61.3261 27.5 60 27.5C58.6739 27.5 57.4021 28.0268 56.4645 28.9645C55.5268 29.9021 55 31.1739 55 32.5V35H48.75C47.0924 35 45.5027 35.6585 44.3306 36.8306C43.1585 38.0027 42.5 39.5924 42.5 41.25V91.25C42.5 92.9076 43.1585 94.4973 44.3306 95.6694C45.5027 96.8415 47.0924 97.5 48.75 97.5H83.75C84.0815 97.5 84.3995 97.3683 84.6339 97.1339C84.8683 96.8995 85 96.5815 85 96.25C85 95.9185 84.8683 95.6005 84.6339 95.3661C84.3995 95.1317 84.0815 95 83.75 95H48.75C47.7564 94.997 46.8042 94.601 46.1016 93.8984C45.399 93.1958 45.003 92.2437 45 91.25V52.5H115V73.75C115 74.0815 115.132 74.3995 115.366 74.6339C115.601 74.8683 115.918 75 116.25 75C116.582 75 116.899 74.8683 117.134 74.6339C117.368 74.3995 117.5 74.0815 117.5 73.75V41.25C117.5 39.5924 116.842 38.0027 115.669 36.8306C114.497 35.6585 112.908 35 111.25 35ZM97.5 32.5C97.5 31.837 97.7634 31.2011 98.2322 30.7322C98.7011 30.2634 99.337 30 100 30C100.663 30 101.299 30.2634 101.768 30.7322C102.237 31.2011 102.5 31.837 102.5 32.5V40C102.5 40.663 102.237 41.2989 101.768 41.7678C101.299 42.2366 100.663 42.5 100 42.5C99.337 42.5 98.7011 42.2366 98.2322 41.7678C97.7634 41.2989 97.5 40.663 97.5 40V32.5ZM77.5 32.5C77.5 31.837 77.7634 31.2011 78.2322 30.7322C78.7011 30.2634 79.337 30 80 30C80.663 30 81.2989 30.2634 81.7678 30.7322C82.2366 31.2011 82.5 31.837 82.5 32.5V40C82.5 40.663 82.2366 41.2989 81.7678 41.7678C81.2989 42.2366 80.663 42.5 80 42.5C79.337 42.5 78.7011 42.2366 78.2322 41.7678C77.7634 41.2989 77.5 40.663 77.5 40V32.5ZM57.5 32.5C57.5 31.837 57.7634 31.2011 58.2322 30.7322C58.7011 30.2634 59.337 30 60 30C60.663 30 61.2989 30.2634 61.7678 30.7322C62.2366 31.2011 62.5 31.837 62.5 32.5V40C62.5 40.663 62.2366 41.2989 61.7678 41.7678C61.2989 42.2366 60.663 42.5 60 42.5C59.337 42.5 58.7011 42.2366 58.2322 41.7678C57.7634 41.2989 57.5 40.663 57.5 40V32.5ZM115 50H45V41.25C45.003 40.2564 45.399 39.3042 46.1016 38.6016C46.8042 37.899 47.7564 37.503 48.75 37.5H55V40C55 41.3261 55.5268 42.5979 56.4645 43.5355C57.4021 44.4732 58.6739 45 60 45C61.3261 45 62.5979 44.4732 63.5355 43.5355C64.4732 42.5979 65 41.3261 65 40V37.5H75V40C75 41.3261 75.5268 42.5979 76.4645 43.5355C77.4021 44.4732 78.6739 45 80 45C81.3261 45 82.5979 44.4732 83.5355 43.5355C84.4732 42.5979 85 41.3261 85 40V37.5H95V40C95 41.3261 95.5268 42.5979 96.4645 43.5355C97.4021 44.4732 98.6739 45 100 45C101.326 45 102.598 44.4732 103.536 43.5355C104.473 42.5979 105 41.3261 105 40V37.5H111.25C112.244 37.503 113.196 37.899 113.898 38.6016C114.601 39.3042 114.997 40.2564 115 41.25V50Z" fill="#FF6744"/>
<path d="M77.5 61.25C77.5 60.587 77.2366 59.9511 76.7678 59.4822C76.2989 59.0134 75.663 58.75 75 58.75H70C69.337 58.75 68.7011 59.0134 68.2322 59.4822C67.7634 59.9511 67.5 60.587 67.5 61.25V65C67.5 65.663 67.7634 66.2989 68.2322 66.7678C68.7011 67.2366 69.337 67.5 70 67.5H75C75.663 67.5 76.2989 67.2366 76.7678 66.7678C77.2366 66.2989 77.5 65.663 77.5 65V61.25ZM70 65V61.25H75V65H70Z" fill="#FF6744"/>
<path d="M62.5 61.25C62.5 60.587 62.2366 59.9511 61.7678 59.4822C61.2989 59.0134 60.663 58.75 60 58.75H55C54.337 58.75 53.7011 59.0134 53.2322 59.4822C52.7634 59.9511 52.5 60.587 52.5 61.25V65C52.5 65.663 52.7634 66.2989 53.2322 66.7678C53.7011 67.2366 54.337 67.5 55 67.5H60C60.663 67.5 61.2989 67.2366 61.7678 66.7678C62.2366 66.2989 62.5 65.663 62.5 65V61.25ZM55 65V61.25H60V65H55Z" fill="#FF6744"/>
<path d="M105 67.5C105.663 67.5 106.299 67.2366 106.768 66.7678C107.237 66.2989 107.5 65.663 107.5 65V61.25C107.5 60.587 107.237 59.9511 106.768 59.4822C106.299 59.0134 105.663 58.75 105 58.75H100C99.337 58.75 98.7011 59.0134 98.2322 59.4822C97.7634 59.9511 97.5 60.587 97.5 61.25V65C97.5 65.663 97.7634 66.2989 98.2322 66.7678C98.7011 67.2366 99.337 67.5 100 67.5H105ZM100 61.25H105V65H100V61.25Z" fill="#FF6744"/>
<path d="M77.5 72.5C77.5 71.837 77.2366 71.2011 76.7678 70.7322C76.2989 70.2634 75.663 70 75 70H70C69.337 70 68.7011 70.2634 68.2322 70.7322C67.7634 71.2011 67.5 71.837 67.5 72.5V76.25C67.5 76.913 67.7634 77.5489 68.2322 78.0178C68.7011 78.4866 69.337 78.75 70 78.75H75C75.663 78.75 76.2989 78.4866 76.7678 78.0178C77.2366 77.5489 77.5 76.913 77.5 76.25V72.5ZM70 76.25V72.5H75V76.25H70Z" fill="#FF6744"/>
<path d="M62.5 72.5C62.5 71.837 62.2366 71.2011 61.7678 70.7322C61.2989 70.2634 60.663 70 60 70H55C54.337 70 53.7011 70.2634 53.2322 70.7322C52.7634 71.2011 52.5 71.837 52.5 72.5V76.25C52.5 76.913 52.7634 77.5489 53.2322 78.0178C53.7011 78.4866 54.337 78.75 55 78.75H60C60.663 78.75 61.2989 78.4866 61.7678 78.0178C62.2366 77.5489 62.5 76.913 62.5 76.25V72.5ZM55 76.25V72.5H60V76.25H55Z" fill="#FF6744"/>
<path d="M75 81.25H70C69.337 81.25 68.7011 81.5134 68.2322 81.9822C67.7634 82.4511 67.5 83.087 67.5 83.75V87.5C67.5 88.163 67.7634 88.7989 68.2322 89.2678C68.7011 89.7366 69.337 90 70 90H75C75.663 90 76.2989 89.7366 76.7678 89.2678C77.2366 88.7989 77.5 88.163 77.5 87.5V83.75C77.5 83.087 77.2366 82.4511 76.7678 81.9822C76.2989 81.5134 75.663 81.25 75 81.25ZM70 87.5V83.75H75V87.5H70Z" fill="#FF6744"/>
<path d="M85 67.5H90C90.663 67.5 91.2989 67.2366 91.7678 66.7678C92.2366 66.2989 92.5 65.663 92.5 65V61.25C92.5 60.587 92.2366 59.9511 91.7678 59.4822C91.2989 59.0134 90.663 58.75 90 58.75H85C84.337 58.75 83.7011 59.0134 83.2322 59.4822C82.7634 59.9511 82.5 60.587 82.5 61.25V65C82.5 65.663 82.7634 66.2989 83.2322 66.7678C83.7011 67.2366 84.337 67.5 85 67.5ZM85 61.25H90V65H85V61.25Z" fill="#FF6744"/>
<path d="M82.5 76.25C82.5 76.913 82.7634 77.5489 83.2322 78.0178C83.7011 78.4866 84.337 78.75 85 78.75C85.3315 78.75 85.6495 78.6183 85.8839 78.3839C86.1183 78.1495 86.25 77.8315 86.25 77.5C86.25 77.1685 86.1183 76.8505 85.8839 76.6161C85.6495 76.3817 85.3315 76.25 85 76.25V72.5H90C90.3315 72.5 90.6495 72.3683 90.8839 72.1339C91.1183 71.8995 91.25 71.5815 91.25 71.25C91.25 70.9185 91.1183 70.6005 90.8839 70.3661C90.6495 70.1317 90.3315 70 90 70H85C84.337 70 83.7011 70.2634 83.2322 70.7322C82.7634 71.2011 82.5 71.837 82.5 72.5V76.25Z" fill="#FF6744"/>
<path d="M60 81.25H55C54.337 81.25 53.7011 81.5134 53.2322 81.9822C52.7634 82.4511 52.5 83.087 52.5 83.75V87.5C52.5 88.163 52.7634 88.7989 53.2322 89.2678C53.7011 89.7366 54.337 90 55 90H60C60.663 90 61.2989 89.7366 61.7678 89.2678C62.2366 88.7989 62.5 88.163 62.5 87.5V83.75C62.5 83.087 62.2366 82.4511 61.7678 81.9822C61.2989 81.5134 60.663 81.25 60 81.25ZM55 87.5V83.75H60V87.5H55Z" fill="#FF6744"/>
<path d="M101.25 70C98.0361 70 94.8943 70.953 92.222 72.7386C89.5497 74.5242 87.4669 77.0621 86.237 80.0314C85.007 83.0007 84.6852 86.268 85.3122 89.4202C85.9393 92.5724 87.4869 95.4679 89.7595 97.7405C92.0321 100.013 94.9276 101.561 98.0798 102.188C101.232 102.815 104.499 102.493 107.469 101.263C110.438 100.033 112.976 97.9503 114.761 95.278C116.547 92.6057 117.5 89.4639 117.5 86.25C117.495 81.9418 115.781 77.8114 112.735 74.765C109.689 71.7186 105.558 70.005 101.25 70ZM101.25 100C98.5305 100 95.8721 99.1936 93.6109 97.6827C91.3497 96.1718 89.5874 94.0244 88.5467 91.5119C87.506 88.9994 87.2337 86.2347 87.7642 83.5675C88.2948 80.9003 89.6043 78.4503 91.5273 76.5273C93.4503 74.6043 95.9003 73.2947 98.5675 72.7642C101.235 72.2337 103.999 72.506 106.512 73.5467C109.024 74.5874 111.172 76.3497 112.683 78.6109C114.194 80.8721 115 83.5305 115 86.25C114.996 89.8954 113.546 93.3903 110.968 95.968C108.39 98.5457 104.895 99.9957 101.25 100Z" fill="#FF6744"/>
<path d="M108.473 81.0101L98.75 90.7326L94.3313 86.3126C94.0955 86.0849 93.7798 85.9589 93.452 85.9617C93.1243 85.9646 92.8108 86.096 92.579 86.3278C92.3473 86.5596 92.2158 86.8731 92.2129 87.2008C92.2101 87.5286 92.3361 87.8443 92.5638 88.0801L97.8663 93.3838C98.1007 93.6182 98.4186 93.7498 98.75 93.7498C99.0815 93.7498 99.3994 93.6182 99.6338 93.3838L110.24 82.7776C110.468 82.5418 110.594 82.2261 110.591 81.8983C110.588 81.5706 110.457 81.2571 110.225 81.0253C109.993 80.7935 109.68 80.6621 109.352 80.6592C109.024 80.6564 108.708 80.7824 108.473 81.0101Z" fill="#FF6744"/>
</svg>
