<svg width="120" height="105" viewBox="0 0 120 105" fill="none" xmlns="http://www.w3.org/2000/svg">
<circle cx="50" cy="50" r="50" fill="#E1F3F4"/>
<g clip-path="url(#clip0_2162_5)">
<path d="M80 25C74.8453 25 70.6666 29.1787 70.6666 34.3333C70.6725 39.4855 74.8478 43.6608 80 43.6667C85.1546 43.6667 89.3333 39.488 89.3333 34.3333C89.3333 29.1787 85.1546 25 80 25ZM80 41C76.3181 41 73.3333 38.0152 73.3333 34.3333C73.3376 30.6533 76.32 27.671 80 27.6667C83.6818 27.6667 86.6666 30.6515 86.6666 34.3333C86.6666 38.0152 83.6818 41 80 41Z" fill="#FF6744"/>
<path d="M84 45H76C69.3757 45.0073 64.0073 50.3757 64 57V79.6667H69.3333V105H72V74.3333H69.3333V77H66.6667V57C66.6725 51.8478 70.8478 47.6725 76 47.6667H84C89.1522 47.6725 93.3275 51.8478 93.3333 57V77H90.6667V74.3333H88V105H90.6667V79.6667H96V57C95.9927 50.3757 90.6243 45.0073 84 45Z" fill="#FF6744"/>
<path d="M81.3333 79.6665H78.6666V105H81.3333V79.6665Z" fill="#FF6744"/>
<path d="M106.667 38.3335C102.248 38.3335 98.6666 41.9152 98.6666 46.3335C98.671 50.75 102.25 54.3292 106.667 54.3335C111.085 54.3335 114.667 50.7518 114.667 46.3335C114.667 41.9152 111.085 38.3335 106.667 38.3335ZM106.667 51.6668C103.721 51.6668 101.333 49.279 101.333 46.3335C101.333 43.388 103.721 41.0002 106.667 41.0002C109.612 41.0002 112 43.388 112 46.3335C112 49.279 109.612 51.6668 106.667 51.6668Z" fill="#FF6744"/>
<path d="M110.667 55.6667H98.6666V58.3334H110.667C114.347 58.3377 117.329 61.3201 117.333 65.0001V82.3334H114.667V79.6668H112V105H114.667V85.0001H120V65.0001C119.994 59.8479 115.819 55.6726 110.667 55.6667Z" fill="#FF6744"/>
<path d="M98.6666 79.6665V82.3332H93.3333V84.9998H98.6666V105H101.333V79.6665H98.6666Z" fill="#FF6744"/>
<path d="M108 85H105.333V105H108V85Z" fill="#FF6744"/>
<path d="M53.3334 38.3335C48.915 38.3335 45.3334 41.9152 45.3334 46.3335C45.3377 50.75 48.9169 54.3292 53.3334 54.3335C57.7517 54.3335 61.3334 50.7518 61.3334 46.3335C61.3334 41.9152 57.7517 38.3335 53.3334 38.3335ZM53.3334 51.6668C50.3879 51.6668 48 49.279 48 46.3335C48 43.388 50.3879 41.0002 53.3334 41.0002C56.2789 41.0002 58.6667 43.388 58.6667 46.3335C58.6667 49.279 56.2789 51.6668 53.3334 51.6668Z" fill="#FF6744"/>
<path d="M49.3333 55.6667C44.1812 55.6726 40.0058 59.8479 40 65.0001V85.0001H45.3333V105H48V79.6668H45.3333V82.3334H42.6667V65.0001C42.671 61.3201 45.6533 58.3377 49.3333 58.3334H61.3333V55.6667H49.3333Z" fill="#FF6744"/>
<path d="M61.3333 82.3332V79.6665H58.6666V105H61.3333V84.9998H66.6666V82.3332H61.3333Z" fill="#FF6744"/>
<path d="M54.6667 85H52V105H54.6667V85Z" fill="#FF6744"/>
</g>
<defs>
<clipPath id="clip0_2162_5">
<rect width="80" height="80" fill="white" transform="translate(40 25)"/>
</clipPath>
</defs>
</svg>
