<svg width="80" height="84" viewBox="0 0 80 84" fill="none" xmlns="http://www.w3.org/2000/svg">
<circle cx="40" cy="42" r="40" fill="black"/>
<path d="M43.4844 58.1406L51.2891 13H61.2383L51.8867 67H42.9922L43.4844 58.1406ZM21.8281 48.7188L21.8984 47.9453C22.2031 45.625 22.7422 43.2812 23.5156 40.9141C24.3125 38.5469 25.3906 36.3906 26.75 34.4453C28.1328 32.5 29.832 30.9531 31.8477 29.8047C33.8633 28.6562 36.2539 28.1289 39.0195 28.2227C41.3867 28.3164 43.3438 28.9844 44.8906 30.2266C46.4375 31.4453 47.6328 33.0273 48.4766 34.9727C49.3438 36.8945 49.9297 38.9453 50.2344 41.125C50.5625 43.2812 50.6914 45.332 50.6211 47.2773L50.4453 48.9648C50.0703 51.0508 49.4375 53.207 48.5469 55.4336C47.6797 57.6367 46.543 59.6875 45.1367 61.5859C43.7539 63.4609 42.1016 64.9727 40.1797 66.1211C38.2812 67.2695 36.1133 67.8086 33.6758 67.7383C31.1211 67.668 29.0234 67.0469 27.3828 65.875C25.7656 64.6797 24.5117 63.1445 23.6211 61.2695C22.7305 59.3945 22.1562 57.3555 21.8984 55.1523C21.6406 52.9492 21.6172 50.8047 21.8281 48.7188ZM31.8477 47.9102L31.7773 48.6484C31.6836 49.6562 31.625 50.793 31.6016 52.0586C31.6016 53.3008 31.7305 54.5078 31.9883 55.6797C32.2695 56.8281 32.7734 57.7891 33.5 58.5625C34.25 59.3125 35.3281 59.7227 36.7344 59.793C38.5156 59.8633 40.0508 59.4531 41.3398 58.5625C42.6289 57.6484 43.6602 56.4766 44.4336 55.0469C45.2305 53.6172 45.7578 52.1172 46.0156 50.5469L46.6836 45.8711C46.8008 44.793 46.8008 43.7031 46.6836 42.6016C46.5664 41.5 46.2969 40.4688 45.875 39.5078C45.4766 38.5469 44.8672 37.7617 44.0469 37.1523C43.25 36.543 42.207 36.2266 40.918 36.2031C39.3477 36.1328 38.0117 36.4727 36.9102 37.2227C35.832 37.9492 34.9531 38.9102 34.2734 40.1055C33.5938 41.2773 33.0547 42.5547 32.6562 43.9375C32.2812 45.3203 32.0117 46.6445 31.8477 47.9102Z" fill="white"/>
</svg>
