<svg width="23" height="19" viewBox="0 0 23 19" fill="none" xmlns="http://www.w3.org/2000/svg">
<path d="M17.2946 0.0159955C18.3506 0.0159955 19.2146 0.231996 19.8866 0.663996C20.5586 1.096 21.1106 1.648 21.5426 2.32C22.0706 3.088 22.4066 3.928 22.5506 4.84C22.6946 5.752 22.7666 6.496 22.7666 7.072C22.7666 9.424 22.1666 11.56 20.9666 13.48C19.7666 15.4 17.8946 16.96 15.3506 18.16L14.7026 16.864C16.1906 16.24 17.4626 15.256 18.5186 13.912C19.6226 12.568 20.1746 11.2 20.1746 9.808C20.1746 9.232 20.1026 8.728 19.9586 8.296C19.1906 8.92 18.3026 9.232 17.2946 9.232C16.0466 9.232 14.9666 8.824 14.0546 8.008C13.1426 7.192 12.6866 6.064 12.6866 4.624C12.6866 3.28 13.1426 2.176 14.0546 1.312C14.9666 0.447996 16.0466 0.0159955 17.2946 0.0159955ZM5.05459 0.0159955C6.11059 0.0159955 6.97459 0.231996 7.64659 0.663996C8.31859 1.096 8.87059 1.648 9.30259 2.32C9.83059 3.088 10.1666 3.928 10.3106 4.84C10.4546 5.752 10.5266 6.496 10.5266 7.072C10.5266 9.424 9.92659 11.56 8.72659 13.48C7.52659 15.4 5.65459 16.96 3.11059 18.16L2.46259 16.864C3.95059 16.24 5.22259 15.256 6.27859 13.912C7.38259 12.568 7.93459 11.2 7.93459 9.808C7.93459 9.232 7.86259 8.728 7.71859 8.296C6.95059 8.92 6.06259 9.232 5.05459 9.232C3.80659 9.232 2.72659 8.824 1.81459 8.008C0.902594 7.192 0.446594 6.064 0.446594 4.624C0.446594 3.28 0.902594 2.176 1.81459 1.312C2.72659 0.447996 3.80659 0.0159955 5.05459 0.0159955Z" fill="#FF6744"/>
</svg>
